# xmcd CD database file
#
# Track frame offsets:
#	150
#	21517
#	39322
#	63772
#	84407
#	105360
#	126742
#	150457
#	168395
#	187440
#	201980
#	231110
#	253622
#	273352
#	298005
#
# Disc length: 4166 seconds
#
# Revision: 0
# Processed by: cddbd v1.5PL3 Copyright (c) Steve Scherf et al.
# Submitted via: CDex 1.51
#
DISCID=d710440f
DTITLE=Eric Clapton - Clapton Chronicles
DYEAR=1900
DGENRE=Blues
TTITLE0=blue eyes blue
TTITLE1=change the world
TTITLE2=my father's eyes
TTITLE3=tears in heaven
TTITLE4=layla
TTITLE5=pretending
TTITLE6=bad love
TTITLE7=before you accuse me(take a look at yourself)
TTITLE8=it's in the way that you use it
TTITLE9=forever man
TTITLE10=running on faith
TTITLE11=she's waiting
TTITLE12=(I) get lost
TTITLE13=wonderful tonight
TTITLE14=hard times(bonus track)
EXTD=
EXTT0=
EXTT1=
EXTT2=
EXTT3=
EXTT4=
EXTT5=
EXTT6=
EXTT7=
EXTT8=
EXTT9=
EXTT10=
EXTT11=
EXTT12=
EXTT13=
EXTT14=
PLAYORDER=
